<svg class="svg-icon" style="width: 1em; height: 1em;vertical-align: middle;fill: currentColor;overflow: hidden;" viewBox="0 0 1024 1024" version="1.1" xmlns="http://www.w3.org/2000/svg"><path d="M97.587596 509.247306c16.954137 0 30.699186-13.745049 30.699186-30.699186 0-52.242851 38.943964-96.978728 90.587158-104.057961 8.607028-1.179872 16.310477-5.950526 21.200858-13.131065 4.891404-7.179516 6.511297-16.09456 4.459568-24.535813-1.088798-4.479011-1.641383-9.072633-1.641383-13.651928 0-31.718399 25.802666-57.523111 57.519018-57.523111 17.378809 0 33.648354 7.737218 44.636616 21.228487 7.04137 8.644891 18.21485 12.795421 29.191856 10.835789 10.977006-1.957585 20.029172-9.711176 23.647583-20.25737 26.264177-76.530001 98.30698-127.949091 179.26892-127.949091 104.500029 0 189.516308 84.97023 189.516308 189.413977 0 0.933255 0.020466 1.842974 0.044002 2.749624 0.010233 0.384763 0.027629 0.76748 0.022513 1.154289-0.350994 16.877389 12.989849 30.871101 29.866215 31.326473 27.489074 0.73985 53.230342 11.969613 72.480778 31.620162 19.274996 19.676132 29.890774 45.654806 29.890774 73.151044 0 16.954137 13.745049 30.699186 30.699186 30.699186s30.699186-13.745049 30.699186-30.699186c0-43.659359-16.844643-84.896552-47.430242-116.117624-23.620977-24.111141-53.4217-40.209794-85.897346-46.769186-5.248537-58.364269-30.522154-112.543216-72.486918-154.48035C707.170075 114.191762 644.167159 88.107687 577.159022 88.107687c-92.77294 0-176.699398 50.999534-220.141816 130.423445-17.142425-9.281387-36.512588-14.281261-56.602136-14.281261-64.626903 0-117.378337 51.819203-118.884644 116.092042-28.083615 9.197476-53.436026 25.821085-73.245188 48.356334-26.693965 30.368658-41.394782 69.38016-41.394782 109.84885C66.88841 495.503281 80.633459 509.247306 97.587596 509.247306z"  /><path d="M927.659815 557.309952l-830.924633 0c-16.954137 0-30.699186 13.745049-30.699186 30.699186s13.745049 30.699186 30.699186 30.699186l830.924633 0c16.954137 0 30.699186-13.745049 30.699186-30.699186S944.614975 557.309952 927.659815 557.309952z"  /><path d="M927.659815 709.782575l-830.924633 0c-16.954137 0-30.699186 13.745049-30.699186 30.699186s13.745049 30.699186 30.699186 30.699186l830.924633 0c16.954137 0 30.699186-13.745049 30.699186-30.699186S944.614975 709.782575 927.659815 709.782575z"  /><path d="M927.659815 861.231893l-830.924633 0c-16.954137 0-30.699186 13.745049-30.699186 30.699186s13.745049 30.699186 30.699186 30.699186l830.924633 0c16.954137 0 30.699186-13.745049 30.699186-30.699186S944.614975 861.231893 927.659815 861.231893z"  /></svg>