<svg class="svg-icon" style="width: 1em;height: 1em;vertical-align: middle;fill: currentColor;overflow: hidden;" viewBox="0 0 1024 1024" version="1.1" xmlns="http://www.w3.org/2000/svg"><path d="M771.104134 259.308637l-39.962532-6.823911-14.842007-38.853646c-18.296613-44.952517-47.04234-80.18096-86.279831-105.68533-39.237491-25.504369-83.166422-36.721174-131.91474-33.693063-48.748318 3.028111-91.227167 19.618746-127.393898 49.686606-36.166731 30.11051-60.348967 69.092104-72.50406 117.115381l-11.472701 45.677558-46.829093 8.018096c-49.473358 9.894672-89.47854 32.925373-119.972894 69.092104-30.451705 36.166731-46.061403 79.41327-46.829093 129.654319 1.53538 57.150259 21.154126 104.533794 58.856237 142.235905 37.702111 37.702111 85.085647 57.320857 142.235906 58.856237h456.946174c57.8753-1.53538 107.007462-20.557033 147.35384-57.150259 40.389026-36.550576 63.97417-83.763514 70.798082-141.638813 3.83845-57.8753-10.662362-108.75609-43.374488-152.514422-32.754775-43.800982-77.664643-71.779019-134.772252-83.976762zM1023.58886 475.242787c-2.30307 82.995824-31.048797 151.91733-86.237182 206.764519-55.231034 54.847189-123.981942 83.379669-206.210076 85.682739H274.195428a270.397494 270.397494 0 0 1-194.225582-79.967713 268.862114 268.862114 0 0 1-59.410679-89.137344A274.960985 274.960985 0 0 1 0.002133 493.5394c0.76769-68.537661 22.092414-127.521846 63.974171-177.037854 41.881757-49.516008 96.345101-80.735403 163.347382-93.700835 16.761233-62.43879 48.961565-113.874023 96.558347-154.2204C371.478816 28.191284 428.031983 5.715026 493.456235 1.151535c64.74186-3.83845 123.38485 11.216805 175.928968 45.123115 52.586768 33.863661 91.01392 80.906001 115.409404 141.08437 70.073041 15.225853 126.967404 49.132163 170.768385 101.676282 43.800982 52.544119 66.447838 114.599064 67.983219 186.207485zM182.797663 840.791197c10.662362 0 19.405498 3.411956 26.272059 10.278517 6.823912 6.866561 10.235867 15.609698 10.235868 26.272059v109.694378c0 10.662362-3.411956 19.405498-10.235868 26.272059a35.569639 35.569639 0 0 1-26.272059 10.278517 35.569639 35.569639 0 0 1-26.272059-10.278517 35.569639 35.569639 0 0 1-10.278517-26.272059V877.299124c0-10.662362 3.411956-19.405498 10.235867-26.27206a35.569639 35.569639 0 0 1 26.314709-10.235867z m219.346106 0c10.662362 0 19.405498 3.411956 26.272059 10.278517 6.823912 6.866561 10.235867 15.609698 10.235867 26.272059v109.694378c0 10.662362-3.411956 19.405498-10.235867 26.272059a35.569639 35.569639 0 0 1-26.272059 10.278517 35.569639 35.569639 0 0 1-26.314709-10.278517 35.569639 35.569639 0 0 1-10.235867-26.272059V877.299124c0-10.662362 3.411956-19.405498 10.235867-26.27206a35.569639 35.569639 0 0 1 26.314709-10.235867z m219.303456 0c10.662362 0 19.448148 3.411956 26.314709 10.278517 6.823912 6.866561 10.235867 15.609698 10.235867 26.272059v109.694378c0 10.662362-3.411956 19.405498-10.235867 26.272059a35.569639 35.569639 0 0 1-26.314709 10.278517 35.569639 35.569639 0 0 1-26.272059-10.278517 35.569639 35.569639 0 0 1-10.235868-26.272059V877.299124c0-10.662362 3.411956-19.405498 10.235868-26.27206a35.569639 35.569639 0 0 1 26.272059-10.235867z m219.346106 0c10.662362 0 19.448148 3.411956 26.272059 10.278517 6.866561 6.866561 10.278517 15.609698 10.278517 26.272059v109.694378c0 10.662362-3.411956 19.405498-10.235868 26.272059a35.569639 35.569639 0 0 1-26.314708 10.278517 35.569639 35.569639 0 0 1-26.27206-10.278517 35.569639 35.569639 0 0 1-10.235867-26.272059V877.299124c0-10.662362 3.411956-19.405498 10.235867-26.27206a35.569639 35.569639 0 0 1 26.27206-10.235867z"  /></svg>